HIERARCHY
ROOT Hips
{
	OFFSET	0.00	0.00	0.00
	CHANNELS 6 Xposition Yposition Zposition Zrotation Xrotation Yrotation
	JOINT LeftUpLeg
	{
		OFFSET	 0.126116	-0.065224	 0.014019
		CHANNELS 3 Zrotation Xrotation Yrotation
		JOINT LeftLeg
		{
			OFFSET	 0.000000	 0.569914	 0.000000
			CHANNELS 3 Zrotation Xrotation Yrotation
			JOINT LeftFoot
			{
				OFFSET	 0.000000	 0.544423	 0.000000
				CHANNELS 3 Zrotation Xrotation Yrotation
				JOINT LeftToeBase
				{
					OFFSET	 0.000000	 0.207117	 0.000000
					CHANNELS 3 Zrotation Xrotation Yrotation
					End Site
					{
						OFFSET	 0.000000	 0.207117	 0.000000
					}
				}
			}
		}
	}
	JOINT RightUpLeg
	{
		OFFSET	-0.124023	-0.065224	 0.008373
		CHANNELS 3 Zrotation Xrotation Yrotation
		JOINT RightLeg
		{
			OFFSET	 0.000000	 0.570047	 0.000000
			CHANNELS 3 Zrotation Xrotation Yrotation
			JOINT RightFoot
			{
				OFFSET	 0.000000	 0.544354	 0.000000
				CHANNELS 3 Zrotation Xrotation Yrotation
				JOINT RightToeBase
				{
					OFFSET	 0.000000	 0.207540	 0.000000
					CHANNELS 3 Zrotation Xrotation Yrotation
					End Site
					{
						OFFSET	 0.000000	 0.207540	 0.000000
					}
				}
			}
		}
	}
	JOINT Spine
	{
		OFFSET	 0.000184	 0.117403	 0.007763
		CHANNELS 3 Zrotation Xrotation Yrotation
		JOINT Spine1
		{
			OFFSET	 0.000000	 0.137269	 0.000000
			CHANNELS 3 Zrotation Xrotation Yrotation
			JOINT Spine2
			{
				OFFSET	 0.000000	 0.156879	 0.000000
				CHANNELS 3 Zrotation Xrotation Yrotation
				JOINT LeftShoulder
				{
					OFFSET	 0.080501	 0.160143	 0.002496
					CHANNELS 3 Zrotation Xrotation Yrotation
					JOINT LeftArm
					{
						OFFSET	 0.000000	 0.164363	 0.000000
						CHANNELS 3 Zrotation Xrotation Yrotation
						JOINT LeftForeArm
						{
							OFFSET	 0.000000	 0.364576	 0.000000
							CHANNELS 3 Zrotation Xrotation Yrotation
							JOINT LeftHand
							{
								OFFSET	 0.000000	 0.360812	 0.000000
								CHANNELS 3 Zrotation Xrotation Yrotation
								JOINT LeftHandIndex1
								{
									OFFSET	 0.000000	 0.086006	 0.000000
									CHANNELS 3 Zrotation Xrotation Yrotation
									JOINT LeftHandIndex2
									{
										OFFSET	 0.000000	 0.047237	 0.000000
										CHANNELS 3 Zrotation Xrotation Yrotation
										JOINT LeftHandIndex3
										{
											OFFSET	-0.004284	 0.038165	 0.000551
											CHANNELS 3 Zrotation Xrotation Yrotation
											End Site
											{
												OFFSET	-0.004284	 0.038165	 0.000551
											}
										}
									}
								}
							}
						}
					}
				}
				JOINT Neck
				{
					OFFSET	 0.000000	 0.176489	 0.000000
					CHANNELS 3 Zrotation Xrotation Yrotation
					JOINT Head
					{
						OFFSET	 0.000000	 0.077941	 0.001747
						CHANNELS 3 Zrotation Xrotation Yrotation
						End Site
						{
							OFFSET	 0.000000	 0.077941	 0.001747
						}
					}
				}
				JOINT RightShoulder
				{
					OFFSET	-0.080363	 0.159706	-0.000306
					CHANNELS 3 Zrotation Xrotation Yrotation
					JOINT RightArm
					{
						OFFSET	 0.000000	 0.164196	 0.000000
						CHANNELS 3 Zrotation Xrotation Yrotation
						JOINT RightForeArm
						{
							OFFSET	 0.000000	 0.365611	 0.000000
							CHANNELS 3 Zrotation Xrotation Yrotation
							JOINT RightHand
							{
								OFFSET	 0.000000	 0.360648	 0.000000
								CHANNELS 3 Zrotation Xrotation Yrotation
								JOINT RightHandIndex1
								{
									OFFSET	 0.000000	 0.069977	 0.000000
									CHANNELS 3 Zrotation Xrotation Yrotation
									JOINT RightHandIndex2
									{
										OFFSET	 0.000000	 0.052305	 0.000000
										CHANNELS 3 Zrotation Xrotation Yrotation
										JOINT RightHandIndex3
										{
											OFFSET	 0.009002	 0.042196	 0.000782
											CHANNELS 3 Zrotation Xrotation Yrotation
											End Site
											{
												OFFSET	 0.009002	 0.042196	 0.000782
											}
										}
									}
								}
							}
						}
					}
				}
			}
		}
	}
}
MOTION
Frames:    8
Frame Time: 0.03333334
-0.045834	 1.227915	-3.578796	-3.481904	 1.031189	-174.140700	 165.188200	 9.167712	 12.081320	 4.450933	-30.348770	 4.742271	-0.192459	 76.781490	 8.053511	 1.500374	 31.091820	-2.806077	-176.130600	 30.480270	-11.128810	-8.035651	-61.385950	 3.039969	 13.442630	 75.190730	-8.119531	-1.710636	 33.445940	 3.657712	-1.768008	 8.171971	-0.661752	-0.624616	 3.545600	 0.315348	 0.453841	-4.014628	-2.920461	-121.591300	 7.467716	 94.077010	 7.067584	 50.595090	 5.974644	 29.216070	-1.446800	 0.293192	 4.847071	-10.290420	 15.217150	 4.679082	 19.536170	-1.714618	-5.862545	 22.023800	 2.434792	 5.347067	 4.704265	-0.162470	-0.175828	-4.855990	-0.045127	-2.166591	-2.091807	-3.883552	 118.485700	-0.280925	-90.704980	 13.873410	 52.802790	-16.579430	-20.373000	-0.784759	-0.082472	 1.480382	 2.199415	-8.230968	-2.252684	 24.682890	 1.235434	 15.591220	 43.943730	-11.434650	-8.533437	 22.549080	-1.132047
-0.044792	 1.226165	-3.661325	-3.475156	 0.293330	-173.200800	 165.871100	 4.525865	 12.611260	 4.106304	-28.379700	 5.934969	 8.899338	 79.423130	-0.552791	 1.536791	 31.544410	-2.823243	-179.888200	 36.191250	-7.943984	-5.435581	-51.557610	 6.499761	 22.210900	 71.992880	-14.525050	-1.688707	 33.270800	 3.352517	-1.509985	 7.802311	-1.830955	-0.502391	 4.040468	-0.085910	 0.417451	-4.365870	-3.169115	-121.490000	 8.155723	 94.412520	 17.422890	 46.984810	-0.000911	 31.604510	-1.553389	 0.355817	 4.062446	-11.269040	 12.227440	 4.683486	 19.598970	-1.719762	-5.862523	 22.034700	 2.435999	 5.348027	 4.726861	-0.162062	-0.175993	-4.858853	 0.046679	-1.961215	-2.361459	-3.902066	 118.319100	-0.576544	-90.563370	 19.557070	 53.423010	-20.237460	-19.418290	-0.749432	-0.069655	 0.854382	 2.722036	-9.753647	-2.051593	 23.290880	 1.136428	 15.245780	 42.487180	-10.883470	-8.535194	 21.214900	-1.044502
-0.043344	 1.222959	-3.736605	-3.448084	-0.413396	-172.300200	 166.830000	-0.039807	 13.162220	 3.639353	-25.589590	 7.070104	 20.185240	 80.919230	-11.489730	 1.571966	 31.977610	-2.840070	 176.117600	 37.004480	-3.605781	-3.231525	-36.858060	 9.560774	 25.536710	 68.019870	-15.880050	-1.668802	 33.103070	 3.061031	-1.260557	 7.441402	-2.919605	-0.391098	 4.291483	-0.439906	 0.385268	-4.599267	-3.408797	-121.396800	 8.814792	 94.733090	 28.512340	 42.443600	-6.009211	 27.636670	-1.375039	 0.254371	 7.579189	-12.163680	 9.338039	 4.687707	 19.659080	-1.724692	-5.862503	 22.045140	 2.437154	 5.348946	 4.748490	-0.161673	-0.176146	-4.861592	 0.134557	-1.764468	-2.619738	-3.918829	 118.160300	-0.859884	-90.428630	 21.987840	 54.125880	-21.264160	-15.512470	-0.602879	-0.023563	-0.774449	 3.503691	-11.139670	-1.863469	 21.958400	 1.047543	 14.939890	 41.091090	-10.378510	-8.534830	 19.938020	-0.961473
-0.040789	 1.216525	-3.807016	-3.362896	-0.854343	-171.642400	 167.796800	-3.896970	 13.508850	 3.397256	-24.088270	 7.486792	 26.995250	 81.686510	-17.897210	 1.741999	 34.017090	-2.924734	 173.888600	 34.228550	-1.057812	-1.654311	-21.003310	 11.393960	 23.810650	 63.344710	-13.126690	-1.677198	 33.240840	 2.890523	-0.989388	 7.164669	-3.928884	-0.282370	 4.419320	-0.727905	 0.367097	-4.748946	-3.563014	-121.312700	 9.262019	 94.947940	 36.606210	 38.538240	-10.292560	 22.188710	-1.119543	 0.135664	 11.877180	-13.102110	 7.300917	 4.730495	 19.777700	-1.746679	-5.862243	 22.191880	 2.453417	 5.357626	 4.952436	-0.158043	-0.172436	-4.887629	 0.201018	-1.606273	-2.790908	-3.819131	 118.093700	-1.106530	-90.313960	 21.647600	 54.776210	-19.873320	-10.050930	-0.393443	 0.023895	-2.606550	 3.821593	-12.953590	-1.709426	 20.170600	 0.976912	 14.582540	 39.311230	-9.764537	-8.531299	 18.228010	-0.851258
-0.036005	 1.203105	-3.889849	-3.183752	-0.872203	-171.394800	 168.837000	-7.825838	 13.338730	 3.482435	-24.620650	 6.637045	 25.649830	 82.801620	-15.824930	 2.164155	 38.694580	-3.156949	 173.736100	 32.418270	-1.421049	-0.822418	-10.806930	 11.149230	 18.980310	 58.390190	-8.433466	-1.730990	 33.878220	 2.917776	-0.663615	 7.020876	-4.959166	-0.059492	 4.671153	-1.060530	 0.323992	-4.913936	-3.575760	-121.238900	 9.361928	 94.990400	 40.359920	 36.196760	-13.174940	 20.830140	-1.054204	 0.109873	 11.860260	-13.789760	 6.218297	 4.836546	 19.991850	-1.796869	-5.861788	 22.561420	 2.494445	 5.378952	 5.454381	-0.149241	-0.162392	-4.951738	 0.232416	-1.511524	-2.819016	-3.530276	 118.177500	-1.292462	-90.230880	 20.658290	 54.902800	-17.721270	-5.236558	-0.205755	 0.049173	-4.134140	 3.032562	-15.774200	-1.608414	 17.636980	 0.932606	 14.151110	 36.901540	-8.980210	-8.520515	 15.808520	-0.696824
-0.029425	 1.184552	-3.980286	-2.971375	-0.883380	-171.072800	 170.027800	-11.767210	 13.165220	 3.695803	-25.934260	 5.644260	 21.190460	 83.854770	-10.794070	 2.782874	 44.612370	-3.545613	 175.507600	 38.543390	-3.295833	-1.517497	-19.401590	 10.328790	 23.131830	 64.181900	-10.950470	-1.800090	 34.683740	 2.953559	-0.237826	 6.831080	-6.161942	 0.050529	 4.549476	-1.372831	 0.342015	-4.918466	-3.592606	-121.145800	 9.488311	 95.043930	 39.401640	 35.741230	-13.288150	 24.973570	-1.251587	 0.193304	 10.927270	-15.457710	 5.625076	 4.971070	 20.262390	-1.861003	-5.861622	 23.028470	 2.546453	 5.405820	 6.088765	-0.138374	-0.149645	-5.032754	 0.272118	-1.391895	-2.853855	-3.165220	 118.283700	-1.527289	-90.125500	 23.786460	 53.994450	-18.590590	-6.468468	-0.253976	 0.044204	-1.295272	 2.428748	-19.046220	-1.485404	 14.433480	 0.883980	 13.680600	 33.848800	-8.052708	-8.497479	 12.749580	-0.503244
-0.025654	 1.175507	-4.029221	-2.829381	-0.881455	-170.820400	 170.818100	-13.961220	 13.108010	 3.748535	-26.254450	 4.870833	 13.113920	 83.176770	-2.465430	 3.338238	 49.083370	-3.933625	 176.877500	 41.256780	-4.986590	-1.923018	-24.049890	 9.661313	 26.842470	 68.654210	-13.490850	-1.853321	 35.294180	 2.981704	 0.043463	 6.697044	-6.896725	-0.000763	 4.360946	-1.433755	 0.410408	-4.876391	-3.605390	-121.075300	 9.584110	 95.084340	 38.476910	 35.923140	-13.222490	 26.957780	-1.343826	 0.238295	 11.857570	-16.879810	 5.688972	 5.073393	 20.467320	-1.910135	-5.861805	 23.382430	 2.585988	 5.426123	 6.569540	-0.130329	-0.139947	-5.094149	 0.302222	-1.301327	-2.879827	-2.888545	 118.364600	-1.705119	-90.045320	 26.176180	 53.326200	-19.260430	-8.236255	-0.322973	 0.035288	 1.704326	 2.004903	-21.177020	-1.395177	 12.007370	 0.852260	 13.373480	 31.533060	-7.390785	-8.473210	 10.432930	-0.357224
-0.019149	 1.166867	-4.090271	-1.985612	-0.209133	-169.585500	 174.717600	-22.343490	 13.420570	 2.677011	-19.410970	 3.251681	 2.807221	 71.633960	 8.607372	 5.010128	 59.313250	-4.648115	 178.239400	 38.895460	-6.159220	-1.686599	-21.376460	 10.447140	 16.859810	 60.247270	-9.268210	-1.835350	 35.089070	 2.972147	 0.933937	 6.677133	-8.505613	 0.402584	 3.914374	-2.040391	 0.422472	-4.441498	-3.731542	-121.044800	 9.334388	 94.956420	 42.900570	 34.435250	-15.541280	 19.707520	-0.999692	 0.089820	 12.116380	-15.399790	 4.214844	 5.068462	 20.608790	-1.917522	-5.862424	 23.834480	 2.636640	 5.449184	 7.116897	-0.121374	-0.122932	-5.142302	 0.293925	-1.464558	-2.178597	-2.691353	 118.655000	-2.065578	-89.884100	 27.431050	 52.406700	-19.500810	-5.110512	-0.200843	 0.049557	-2.402207	 1.773230	-22.061270	-1.483011	 10.453310	 0.886018	 13.206440	 30.131960	-7.005376	-8.456758	 9.110908	-0.273913
